# xmcd CD database file
#
# Track frame offsets:
#	150
#	14765
#	30868
#	50723
#	67950
#	83535
#	105828
#	124955
#	145083
#	162280
#	185178
#	202405
#
# Disc length: 3050 seconds
#
# Revision: 6
# Processed by: cddbd v1.5.1PL0 Copyright (c) Steve Scherf et al.
# Submitted via: CDex 1.51
#
DISCID=a50be80c
DTITLE=Faith Hill - Faith
DYEAR=1998
DGENRE=Country
TTITLE0=This Kiss
TTITLE1=You Give Me Love
TTITLE2=Let Me Let Go
TTITLE3=Love Ain't Like That
TTITLE4=Better Days
TTITLE5=My Wild Frontier
TTITLE6=The Secret Of Life
TTITLE7=Just To Hear You Say That You Love Me w/Tim McGraw
TTITLE8=Me
TTITLE9=I Love You
TTITLE10=The Hard Way
TTITLE11=Somebody Stand By Me
EXTD=YEAR: 1998
EXTT0=
EXTT1=
EXTT2=
EXTT3=
EXTT4=
EXTT5=
EXTT6=
EXTT7=
EXTT8=
EXTT9=
EXTT10=
EXTT11=
PLAYORDER=
